# xmcd
#
# Track frame offsets:
#	150
#	16043
#	38778
#
# Disc length: 894 seconds
#
# Revision: 0
# Processed by: cddbd v1.5.1PL0 Copyright (c) Steve Scherf et al.
# Submitted via: audiograbber 1.83.01
#
DISCID=15037c03
DTITLE=Hothouse Flowers - Your Love Goes On
DYEAR=2004
DGENRE=
TTITLE0=Your Love Goes On
TTITLE1=Learning To Walk
TTITLE2=The Making Of Us All
EXTD=
EXTT0=
EXTT1=
EXTT2=
PLAYORDER=
